<svg xmlns="http://www.w3.org/2000/svg" width="199" height="199" fill="none" viewBox="0 0 199 199">
  <path stroke="#fff" stroke-linecap="round" stroke-linejoin="round" stroke-width="12" d="M99.025 57.764v57.765m0 0 24.756-24.756m-24.756 24.756L74.27 90.773"/>
  <path stroke="#fff" stroke-linecap="round" stroke-width="12" d="M132.033 140.285H66.017"/>
  <path stroke="#fff" stroke-linecap="round" stroke-width="12" d="M181.546 99.025c0 38.901 0 58.351-12.085 70.436-12.085 12.085-31.535 12.085-70.436 12.085-38.9 0-58.351 0-70.436-12.085-12.085-12.085-12.085-31.535-12.085-70.436 0-38.9 0-58.351 12.085-70.436 12.085-12.085 31.535-12.085 70.436-12.085 38.901 0 58.351 0 70.436 12.085 8.035 8.035 10.728 19.327 11.63 37.428"/>
</svg>
