<svg xmlns="http://www.w3.org/2000/svg" width="199" height="199" fill="none" viewBox="0 0 199 199">
  <path stroke="#1A1A1A" stroke-linecap="round" stroke-width="12" d="M181.546 100.708v12.551c0 32.191 0 48.286-9.668 58.287-9.668 10-25.228 10-56.349 10H82.521c-31.12 0-46.681 0-56.349-10-9.668-10.001-9.668-26.096-9.668-58.287v-12.551c0-18.885 0-28.327 4.285-36.154 4.284-7.828 12.112-12.685 27.767-22.401L65.06 31.91c16.548-10.27 24.822-15.406 33.965-15.406 9.143 0 17.417 5.135 33.965 15.406l16.504 10.243c15.655 9.716 23.483 14.574 27.767 22.4m-53.48 83.984H74.269"/>
</svg>
