<svg xmlns="http://www.w3.org/2000/svg" width="198" height="201" fill="none" viewBox="0 0 198 201">
  <path fill="#1A1A1A" d="M96.92 169.43c-41.75 0-75.72-33.97-75.72-75.72s33.97-75.72 75.72-75.72 75.72 33.97 75.72 75.72-33.97 75.72-75.72 75.72Zm0-137.45c-34.03 0-61.72 27.69-61.72 61.72s27.69 61.72 61.72 61.72 61.72-27.69 61.72-61.72-27.69-61.72-61.72-61.72Z"/>
  <path fill="#1A1A1A" d="M55.41 99.69a30.287 30.287 0 0 1-2.81-5.27c-.67-1.83-1.11-3.72-1.53-5.68-.28-1.93-.37-3.88-.41-5.88-.03-1 .13-1.95.22-2.94.11-.98.2-1.98.38-2.96.17-.98.46-1.92.69-2.9.27-.96.58-1.91.87-2.87.32-.95.73-1.86 1.14-2.77.41-.92.84-1.82 1.29-2.73.99-1.74 2.11-3.42 3.25-5.09 1.26-1.57 2.59-3.08 3.96-4.57 1.49-1.36 3-2.7 4.58-3.95 1.67-1.13 3.35-2.26 5.09-3.24 1.81-.89 3.63-1.74 5.5-2.42 1.91-.62 3.83-1.17 5.76-1.56.98-.18 1.98-.26 2.96-.38.99-.09 1.94-.25 2.94-.22 1.99.04 3.95.13 5.87.41 1.95.42 3.84.85 5.67 1.52 1.84.76 3.61 1.69 5.27 2.79v1.3l-4.83.4c-1.59.25-3.17.58-4.75.86-1.56.37-3.1.84-4.65 1.26-1.52.51-3 1.14-4.49 1.7-5.87 2.54-11.28 6.15-15.76 10.71-4.55 4.49-8.16 9.89-10.7 15.76-.56 1.5-1.19 2.97-1.7 4.49-.41 1.55-.88 3.08-1.26 4.65-.28 1.58-.61 3.16-.86 4.75l-.4 4.83h-1.29Zm99.703 30.045-7.487 11.83 42.309 26.777 7.487-11.83-42.309-26.777ZM8.71 135.65c0 2.3-1.86 4.16-4.16 4.16s-4.16-1.86-4.16-4.16 1.86-4.16 4.16-4.16 4.16 1.87 4.16 4.16Zm42.018 58.05a9.19 9.19 0 1 0-12.998-12.997A9.19 9.19 0 0 0 50.728 193.7ZM28.61 4.79A4.59 4.59 0 1 1 24.02.2c2.53 0 4.59 2.06 4.59 4.59Z"/>
</svg>
