<svg xmlns="http://www.w3.org/2000/svg" width="199" height="199" fill="none" viewBox="0 0 199 199">
  <circle cx="99.025" cy="99.025" r="24.756" stroke="#1A1A1A" stroke-width="12"/>
  <path stroke="#1A1A1A" stroke-linecap="round" stroke-width="12" d="M30.213 87.795c3.9 2.45 6.408 6.624 6.408 11.23 0 4.605-2.509 8.779-6.408 11.229-2.654 1.667-4.363 2.999-5.58 4.585a16.502 16.502 0 0 0-3.269 12.201c.428 3.255 2.351 6.585 6.196 13.244 3.845 6.66 5.768 9.99 8.372 11.988a16.504 16.504 0 0 0 12.201 3.27c1.981-.261 3.99-1.075 6.76-2.539 4.072-2.152 8.942-2.238 12.93.065 3.99 2.303 6.35 6.563 6.521 11.165.117 3.132.417 5.279 1.181 7.125a16.507 16.507 0 0 0 8.932 8.932c3.033 1.256 6.878 1.256 14.568 1.256 7.69 0 11.535 0 14.568-1.256a16.507 16.507 0 0 0 8.932-8.932c.765-1.846 1.064-3.993 1.181-7.125.172-4.602 2.533-8.862 6.521-11.165 3.989-2.303 8.858-2.217 12.93-.064 2.77 1.464 4.779 2.278 6.76 2.539 4.34.571 8.729-.605 12.201-3.27 2.605-1.998 4.527-5.328 8.372-11.988 1.712-2.965 3.043-5.269 4.03-7.202m-6.683-22.828c-3.899-2.45-6.408-6.624-6.408-11.23-.001-4.605 2.508-8.78 6.408-11.23 2.653-1.667 4.363-3 5.579-4.584a16.5 16.5 0 0 0 3.269-12.202c-.428-3.254-2.351-6.584-6.195-13.244-3.845-6.66-5.768-9.99-8.372-11.988a16.506 16.506 0 0 0-12.202-3.27c-1.981.261-3.989 1.076-6.76 2.54-4.072 2.152-8.941 2.238-12.93-.065-3.988-2.303-6.348-6.563-6.52-11.165-.117-3.131-.416-5.278-1.181-7.125a16.504 16.504 0 0 0-8.932-8.931c-3.033-1.257-6.878-1.257-14.568-1.257-7.69 0-11.535 0-14.568 1.256a16.504 16.504 0 0 0-8.932 8.932c-.764 1.846-1.064 3.993-1.18 7.124-.173 4.603-2.533 8.863-6.522 11.166-3.988 2.303-8.858 2.217-12.93.064-2.77-1.464-4.779-2.278-6.76-2.539a16.504 16.504 0 0 0-12.2 3.27c-2.605 1.998-4.528 5.328-8.373 11.988-1.712 2.964-3.042 5.27-4.03 7.201"/>
  <path fill="#1A1A1A" d="M177.587 23.764a6.5 6.5 0 1 0 0-13 6.5 6.5 0 0 0 0 13Z"/>
</svg>
